<svg xmlns="http://www.w3.org/2000/svg" width="20" height="10" fill="none"><path fill="#320" fill-rule="evenodd" d="M.016 5.038A1 1 0 0 1 1 4.022c2.643-.043 5.784-.031 8.629-.015l1.19.008c2.363.014 4.416.027 5.68.006a1 1 0 1 1 .033 2c-1.289.02-3.37.008-5.727-.006l-1.188-.008c-2.846-.016-5.967-.028-8.585.014a1 1 0 0 1-1.016-.983Z" clip-rule="evenodd"/><path fill="#320" fill-rule="evenodd" d="M13.31.312a1 1 0 0 1 1.413 0l4 4.002a1 1 0 0 1-.003 1.418l-4 3.96a1 1 0 0 1-1.407-1.422l3.285-3.253-3.29-3.29A1 1 0 0 1 13.31.311Z" clip-rule="evenodd"/></svg>