<svg xmlns="http://www.w3.org/2000/svg" width="32" height="31" fill="none"><path fill="#fff" d="M16 0c-4.347 0-4.89.019-6.596.091C7.7.167 6.54.421 5.52.797a7.891 7.891 0 0 0-2.835 1.75A7.38 7.38 0 0 0 .84 5.238C.444 6.205.175 7.305.096 8.922.016 10.542 0 11.056 0 15.18c0 4.124.02 4.639.096 6.258.08 1.615.348 2.717.744 3.685a7.418 7.418 0 0 0 1.845 2.69 7.882 7.882 0 0 0 2.835 1.75c1.021.374 2.181.631 3.884.706 1.707.076 2.25.09 6.596.09 4.347 0 4.89-.018 6.596-.09 1.703-.076 2.864-.332 3.884-.706a7.922 7.922 0 0 0 2.835-1.75c.888-.845 1.438-1.69 1.845-2.69.395-.968.665-2.07.744-3.685.08-1.62.096-2.134.096-6.258 0-4.124-.02-4.639-.096-6.258-.08-1.615-.35-2.718-.744-3.685a7.423 7.423 0 0 0-1.845-2.69A7.851 7.851 0 0 0 26.48.798C25.46.42 24.299.166 22.596.09 20.889.015 20.346 0 16 0Zm0 2.732c4.27 0 4.78.02 6.467.09 1.56.07 2.406.315 2.969.525.75.275 1.28.604 1.843 1.134a4.673 4.673 0 0 1 1.194 1.747c.219.533.48 1.337.551 2.817.076 1.601.093 2.082.093 6.135s-.02 4.535-.098 6.135c-.082 1.48-.342 2.283-.562 2.817a4.802 4.802 0 0 1-1.198 1.748c-.559.53-1.099.86-1.84 1.134-.56.207-1.42.455-2.98.522-1.699.072-2.199.089-6.479.089-4.281 0-4.781-.02-6.479-.094C7.92 27.454 7.06 27.207 6.5 27c-.759-.284-1.28-.606-1.839-1.137-.561-.53-.92-1.043-1.2-1.746-.22-.532-.478-1.347-.56-2.827-.06-1.594-.081-2.086-.081-6.128 0-4.043.021-4.536.081-6.15.082-1.48.34-2.294.56-2.825.28-.721.639-1.215 1.2-1.747.559-.53 1.08-.872 1.839-1.136.56-.21 1.401-.457 2.961-.533 1.7-.057 2.2-.076 6.479-.076l.06.038Zm0 4.653c-4.54 0-8.216 3.491-8.216 7.795 0 4.307 3.68 7.795 8.216 7.795 4.54 0 8.216-3.492 8.216-7.795 0-4.307-3.68-7.795-8.216-7.795Zm0 12.855c-2.947 0-5.333-2.264-5.333-5.06s2.386-5.06 5.333-5.06 5.333 2.264 5.333 5.06-2.386 5.06-5.333 5.06ZM26.461 7.078c0 1.005-.861 1.821-1.92 1.821-1.06 0-1.92-.817-1.92-1.821 0-1.005.862-1.82 1.92-1.82 1.058-.002 1.92.815 1.92 1.82Z"/></svg>